<svg width="300" height="212" viewBox="0 0 300 212" fill="none" xmlns="http://www.w3.org/2000/svg">
<g clip-path="url(#clip0_682_7892)">
<mask id="mask0_682_7892" style="mask-type:luminance" maskUnits="userSpaceOnUse" x="0" y="0" width="300" height="212">
<path d="M0.0612793 0H299.939V212H0.0612793V0Z" fill="white"/>
</mask>
<g mask="url(#mask0_682_7892)">
<path d="M123.449 33.3216L152.642 33.3302L152.693 33.3985L195.093 33.2276L195.153 33.3045L250.871 33.4584V74.9865L238.912 74.8839V97.9389H263.617L277.362 113.788V167.899L263.668 183.679L210.967 183.748V183.594L184.689 183.748V183.79H143.298V183.705L112.686 183.739L110.147 180.815L107.626 183.722L68.5938 183.568L54.9334 167.822V118.891L29.4336 118.788L16.1921 102.88V49.2558L29.3738 33.3216L58.7973 33.484V33.3473L123.449 33.2874V33.3216Z" fill="#08204B"/>
<path fill-rule="evenodd" clip-rule="evenodd" d="M152.522 98.2039L146.384 105.581L120.713 105.607L114.575 98.2381V54.0344L120.67 46.6656L146.384 46.6742L152.522 54.0515V98.2039ZM235.339 148.246V133.475L249.332 133.449V126.106H224.371V111.334H257.556L263.959 118.72V136.637L260.3 140.86L263.959 145.075V162.958L257.556 170.335L224.371 170.378V155.632L249.332 155.589V148.246H235.339ZM68.3287 126.097V118.737L74.6802 111.377L101.539 111.522L107.925 118.882V134.654L93.2985 134.611L93.3413 126.243L68.3287 126.097ZM82.9122 129.252V155.529L93.3327 155.632V147.22H107.95L107.916 162.984L101.531 170.344L74.7058 170.241L68.3287 162.881V129.252H82.9122ZM151.966 162.966L145.563 170.352L118.781 170.378L112.379 162.992V118.72L118.739 111.343L145.563 111.351L151.966 118.737V162.966ZM137.34 126.114L127.005 126.106V155.623L137.34 155.598V126.114ZM29.5789 61.386V54.0344L35.6653 46.6913L61.4131 46.8366L67.5252 54.1797V69.9258L53.5143 69.8831L53.5485 61.5313L29.5789 61.386ZM43.5555 64.5403V90.7668L53.5485 90.8779V82.4748H67.5679L67.5252 98.2039L61.4131 105.555L35.6995 105.453L29.5789 98.1013V64.5403H43.5555ZM86.1093 61.4116V105.615H72.09L72.1242 46.6656L110.036 46.6315V105.581H96.0169L96.0511 61.3774L86.1093 61.4116ZM157.044 46.7169L188.852 46.5887L194.99 53.9574V76.0123L188.852 83.3895L171.439 83.4323V105.53L157.044 105.658V46.7169ZM225.508 61.4116V105.607H211.48V61.4116H199.521V46.6571L237.467 46.7597V61.5142L225.508 61.4116ZM180.116 118.814L186.467 111.445L213.181 111.334L219.575 118.703V162.855L213.181 170.224L186.51 170.378L180.116 163.009V148.28H171.285V170.378H156.685V111.445H171.285V133.543H180.116V118.814ZM194.717 126.183V155.649L204.975 155.495V126.072L194.717 126.183ZM171.431 68.6863L180.971 68.6606V61.3261H171.431V68.6863ZM138.494 61.4116L128.586 61.3945V90.8694L138.494 90.8352V61.4116Z" fill="white"/>
</g>
</g>
<defs>
<clipPath id="clip0_682_7892">
<rect width="300" height="212" fill="white"/>
</clipPath>
</defs>
</svg>
